<svg width="46" height="45" viewBox="0 0 46 45" fill="none" xmlns="http://www.w3.org/2000/svg">
<g clip-path="url(#clip0)">
<path d="M20.6762 0.939689L0.943592 20.5903C-0.117265 21.6468 -0.117265 23.3531 0.943592 24.4096L20.6762 44.0602C21.7371 45.1167 23.4505 45.1167 24.5114 44.0602L32.785 35.821C33.735 34.8749 33.735 33.3409 32.785 32.3948C31.8349 31.4486 30.2945 31.4486 29.3444 32.3948L23.0723 38.6409C22.8082 38.9038 22.4075 38.9038 22.1435 38.6409L6.38557 22.9484C6.12152 22.6855 6.12152 22.2864 6.38557 22.0234L22.1435 6.33099C22.4075 6.06804 22.8082 6.06804 23.0723 6.33099L29.3444 12.5771C30.2945 13.5232 31.8349 13.5232 32.785 12.5771C33.735 11.631 33.735 10.097 32.785 9.15086L24.5123 0.912513C23.4471 -0.121077 21.733 -0.112709 20.6762 0.939689Z" fill="url(#paint0_linear)"/>
<path d="M20.6762 0.939689L0.943592 20.5903C-0.117265 21.6468 -0.117265 23.3531 0.943592 24.4096L20.6762 44.0602C21.7371 45.1167 23.4505 45.1167 24.5114 44.0602L32.785 35.821C33.735 34.8749 33.735 33.3409 32.785 32.3948C31.8349 31.4486 30.2945 31.4486 29.3444 32.3948L23.0723 38.6409C22.8082 38.9038 22.4075 38.9038 22.1435 38.6409L6.38557 22.9484C6.12152 22.6855 6.12152 22.2864 6.38557 22.0234L22.1435 6.33099C22.8009 5.76609 23.8737 4.62188 25.449 4.35427C26.6197 4.15539 27.8996 4.59312 29.2888 5.66748C28.36 4.74262 26.7679 3.15763 24.5123 0.912513C23.4471 -0.121077 21.733 -0.112709 20.6762 0.939689Z" fill="url(#paint1_linear)"/>
<path d="M34.6947 30.5672C35.6448 31.5133 37.1852 31.5133 38.1352 30.5672L44.2383 24.4895C45.2991 23.4331 45.2991 21.7267 44.2384 20.6704L38.0822 14.5615C37.1298 13.6165 35.589 13.6179 34.6383 14.5645C33.6883 15.5107 33.6883 17.0447 34.6383 17.9908L38.7963 22.1315C39.0603 22.3944 39.0603 22.7935 38.7963 23.0564L34.6947 27.141C33.7446 28.0871 33.7446 29.6211 34.6947 30.5672Z" fill="url(#paint2_linear)"/>
<path d="M22.6925 27.9038C25.635 27.9038 28.0203 25.5284 28.0203 22.5982C28.0203 19.6679 25.635 17.2925 22.6925 17.2925C19.7501 17.2925 17.3647 19.6679 17.3647 22.5982C17.3647 25.5284 19.7501 27.9038 22.6925 27.9038Z" fill="url(#paint3_linear)"/>
</g>
<defs>
<linearGradient id="paint0_linear" x1="20.8588" y1="0.1438" x2="39.5765" y2="11.6126" gradientUnits="userSpaceOnUse">
<stop stop-color="#4285EB"/>
<stop offset="1" stop-color="#2EC7FF"/>
</linearGradient>
<linearGradient id="paint1_linear" x1="23.374" y1="0.143799" x2="14.1718" y2="47.8622" gradientUnits="userSpaceOnUse">
<stop stop-color="#29CDFF"/>
<stop offset="0.378601" stop-color="#148EFF"/>
<stop offset="1" stop-color="#0A60FF"/>
</linearGradient>
<linearGradient id="paint2_linear" x1="41.6671" y1="11.5931" x2="29.6734" y2="30.4131" gradientUnits="userSpaceOnUse">
<stop stop-color="#FA816E"/>
<stop offset="0.414726" stop-color="#F74A5C"/>
<stop offset="1" stop-color="#F51D2C"/>
</linearGradient>
<linearGradient id="paint3_linear" x1="24.6242" y1="13.5052" x2="20.6396" y2="29.4973" gradientUnits="userSpaceOnUse">
<stop stop-color="#FA8E7D"/>
<stop offset="0.512635" stop-color="#F74A5C"/>
<stop offset="1" stop-color="#F51D2C"/>
</linearGradient>
<clipPath id="clip0">
<rect width="45.1505" height="45" fill="white"/>
</clipPath>
</defs>
</svg>
